<svg aria-hidden="true" style="position: absolute; width: 0; height: 0; overflow: hidden;" version="1.1" xmlns="http://www.w3.org/2000/svg" xmlns:xlink="http://www.w3.org/1999/xlink">
<defs>
<symbol id="icon-twitter" viewBox="0 0 32 32">
<path d="M31.939 6.092c-1.18 0.519-2.44 0.872-3.767 1.033 1.352-0.815 2.392-2.099 2.884-3.631-1.268 0.74-2.673 1.279-4.169 1.579-1.195-1.279-2.897-2.079-4.788-2.079-3.623 0-6.56 2.937-6.56 6.556 0 0.52 0.060 1.020 0.169 1.499-5.453-0.257-10.287-2.876-13.521-6.835-0.569 0.963-0.888 2.081-0.888 3.3 0 2.28 1.16 4.284 2.917 5.461-1.076-0.035-2.088-0.331-2.971-0.821v0.081c0 3.18 2.257 5.832 5.261 6.436-0.551 0.148-1.132 0.228-1.728 0.228-0.419 0-0.82-0.040-1.221-0.115 0.841 2.604 3.26 4.503 6.139 4.556-2.24 1.759-5.079 2.807-8.136 2.807-0.52 0-1.039-0.031-1.56-0.089 2.919 1.859 6.357 2.945 10.076 2.945 12.072 0 18.665-9.995 18.665-18.648 0-0.279 0-0.56-0.020-0.84 1.281-0.919 2.4-2.080 3.28-3.397l-0.063-0.027z"></path>
</symbol>
<symbol id="icon-stackoverflow" viewBox="0 0 32 32">
<path d="M25.315 29.153v-8.539h2.845v11.385h-25.701v-11.385h2.84v8.539h20.016zM8.148 26.308h14.319v-2.849h-14.319v2.849zM8.493 19.839l13.973 2.919 0.601-2.76-13.971-2.916-0.604 2.757zM10.305 13.097l12.94 6.040 1.204-2.6-12.941-6.040-1.203 2.581v0.019zM13.925 6.717l10.956 9.14 1.812-2.16-10.955-9.137-1.8 2.156-0.013 0.001zM21.001 0l-2.328 1.725 8.54 11.472 2.328-1.725-8.54-11.472z"></path>
</symbol>
<symbol id="icon-pdf" viewBox="0 0 32 32">
<path d="M15.243 14.58c-0.309 0.996-0.753 2.052-1.355 3.211-0.263 0.505-0.519 0.98-0.657 1.381l0.145-0.056v0.001c1.692-0.653 3.292-1.027 4.455-1.233-0.203-0.143-0.391-0.288-0.557-0.432-0.788-0.679-1.484-1.665-2.031-2.872zM23.875 19.664c-0.216 0.259-0.625 0.399-1.199 0.399-1.021 0-2.637-0.305-3.98-0.985-2.327 0.241-4.043 0.559-5.397 1-0.071 0.027-0.156 0.059-0.245 0.095-1.657 2.829-2.881 4.092-3.965 4.092-0.204 0-0.401-0.047-0.585-0.139l-0.64-0.42-0.031-0.069c-0.105-0.231-0.124-0.46-0.071-0.719 0.141-0.705 0.872-1.82 2.509-2.824 0.253-0.185 0.647-0.404 1.187-0.653 0.395-0.696 0.821-1.504 1.269-2.407 0.683-1.367 1.107-2.725 1.449-3.899l-0.005-0.016c-0.491-1.615-0.787-2.585-0.292-4.353 0.145-0.515 0.557-1.035 1.060-1.035l0.315 0.003c0.312 0 0.593 0.112 0.809 0.325 0.879 0.879 0.476 3.023 0.029 4.793-0.021 0.087-0.036 0.145-0.047 0.188 0.525 1.504 1.279 2.713 2.128 3.409 0.34 0.269 0.727 0.532 1.149 0.78 0.608-0.067 1.189-0.099 1.731-0.099 1.653 0 2.647 0.299 3.037 0.916 0.141 0.22 0.199 0.475 0.164 0.735-0.011 0.339-0.14 0.643-0.38 0.883zM25.333 3.997h-18.667c-1.473 0-2.667 1.193-2.667 2.667v18.667c0 1.472 1.193 2.667 2.667 2.667h18.667c1.472 0 2.667-1.195 2.667-2.667v-18.667c0-1.473-1.195-2.667-2.667-2.667zM23.35 18.723c-0.148-0.143-0.695-0.475-2.556-0.475-0.092 0-0.185 0-0.305 0.133 0.984 0.428 1.929 0.683 2.536 0.683 0.093 0 0.18-0.007 0.26-0.019l0.045-0.009c0.064-0.021 0.107-0.041 0.12-0.172-0.020-0.033-0.051-0.085-0.1-0.141zM11.106 20.661c-0.283 0.165-0.501 0.309-0.635 0.42-0.955 0.865-1.547 1.74-1.62 2.257 0.605-0.209 1.391-1.084 2.255-2.677zM15.127 11.455l0.072-0.051c0.097-0.432 0.161-0.801 0.215-1.097l0.040-0.217c0.129-0.721 0.112-1.137-0.129-1.46l-0.197-0.067c-0.025 0.039-0.064 0.096-0.089 0.157-0.223 0.553-0.215 1.532 0.089 2.735z"></path>
</symbol>
<symbol id="icon-linkedin" viewBox="0 0 32 32">
<path d="M27.263 27.269h-4.739v-7.425c0-1.771-0.036-4.049-2.469-4.049-2.471 0-2.848 1.927-2.848 3.919v7.556h-4.739v-15.269h4.552v2.081h0.061c0.636-1.2 2.183-2.467 4.493-2.467 4.801 0 5.689 3.16 5.689 7.273v8.381zM7.116 9.911c-1.525 0-2.751-1.235-2.751-2.753 0-1.517 1.227-2.751 2.751-2.751 1.52 0 2.752 1.233 2.752 2.751 0 1.519-1.233 2.753-2.752 2.753zM9.492 27.269h-4.752v-15.269h4.752v15.269zM29.633 0h-27.272c-1.305 0-2.361 1.032-2.361 2.305v27.389c0 1.275 1.056 2.305 2.361 2.305h27.268c1.304 0 2.371-1.031 2.371-2.305v-27.389c0-1.273-1.067-2.305-2.371-2.305h0.004z"></path>
</symbol>
<symbol id="icon-github" viewBox="0 0 32 32">
<path d="M16 0.396c-8.84 0-16 7.164-16 16 0 7.071 4.584 13.067 10.94 15.18 0.8 0.151 1.093-0.344 1.093-0.769 0-0.38-0.013-1.387-0.020-2.72-4.451 0.965-5.389-2.147-5.389-2.147-0.728-1.847-1.78-2.34-1.78-2.34-1.449-0.992 0.112-0.972 0.112-0.972 1.607 0.112 2.451 1.648 2.451 1.648 1.427 2.447 3.745 1.74 4.66 1.331 0.144-1.035 0.556-1.74 1.013-2.14-3.553-0.4-7.288-1.776-7.288-7.907 0-1.747 0.62-3.173 1.647-4.293-0.18-0.404-0.72-2.031 0.14-4.235 0 0 1.34-0.429 4.4 1.64 1.28-0.356 2.64-0.532 4-0.54 1.36 0.008 2.72 0.184 4 0.54 3.040-2.069 4.38-1.64 4.38-1.64 0.86 2.204 0.32 3.831 0.16 4.235 1.020 1.12 1.64 2.547 1.64 4.293 0 6.147-3.74 7.5-7.3 7.893 0.56 0.48 1.080 1.461 1.080 2.96 0 2.141-0.020 3.861-0.020 4.381 0 0.42 0.28 0.92 1.1 0.76 6.401-2.099 10.981-8.099 10.981-15.159 0-8.836-7.164-16-16-16z"></path>
</symbol>
</defs>
</svg>
